<mxfile host="Electron" agent="Mozilla/5.0 (Windows NT 10.0; Win64; x64) AppleWebKit/537.36 (KHTML, like Gecko) draw.io/26.0.9 Chrome/128.0.6613.186 Electron/32.2.5 Safari/537.36" version="26.0.9">
  <diagram name="Страница — 1" id="9tOU_kV5wWpKce2EHoue">
    <mxGraphModel dx="2625" dy="746" grid="1" gridSize="10" guides="1" tooltips="1" connect="1" arrows="1" fold="1" page="1" pageScale="1" pageWidth="1169" pageHeight="827" math="0" shadow="0">
      <root>
        <mxCell id="0" />
        <mxCell id="1" parent="0" />
        <mxCell id="8ioxiQ2x_VyfGYy2V3Dw-42" value="" style="rounded=1;whiteSpace=wrap;html=1;" parent="1" vertex="1">
          <mxGeometry x="900" y="1020" width="160" height="140" as="geometry" />
        </mxCell>
        <mxCell id="H7XO8NyBjXR4PrcWW5bJ-9" value="&lt;span style=&quot;font-size: 36px;&quot;&gt;Полетный контроллер&lt;/span&gt;&lt;div&gt;&lt;span style=&quot;font-size: 36px;&quot;&gt;&lt;br&gt;&lt;/span&gt;&lt;/div&gt;&lt;div&gt;&lt;span style=&quot;font-size: 36px;&quot;&gt;&lt;br&gt;&lt;/span&gt;&lt;/div&gt;&lt;div&gt;&lt;span style=&quot;font-size: 36px;&quot;&gt;&lt;br&gt;&lt;/span&gt;&lt;/div&gt;" style="rounded=0;whiteSpace=wrap;html=1;" parent="1" vertex="1">
          <mxGeometry x="620" y="1250" width="730" height="370" as="geometry" />
        </mxCell>
        <mxCell id="H7XO8NyBjXR4PrcWW5bJ-14" value="&lt;font style=&quot;font-size: 36px;&quot;&gt;Датчик угловых скоростей&lt;/font&gt;" style="rounded=1;whiteSpace=wrap;html=1;" parent="1" vertex="1">
          <mxGeometry x="640" y="1440" width="190" height="150" as="geometry" />
        </mxCell>
        <mxCell id="H7XO8NyBjXR4PrcWW5bJ-16" value="&lt;font style=&quot;font-size: 36px;&quot;&gt;Барометр&lt;/font&gt;" style="rounded=1;whiteSpace=wrap;html=1;" parent="1" vertex="1">
          <mxGeometry x="867.5" y="1480" width="180" height="70" as="geometry" />
        </mxCell>
        <mxCell id="H7XO8NyBjXR4PrcWW5bJ-17" value="&lt;font style=&quot;font-size: 36px;&quot;&gt;Датчик воздушной скорости&lt;/font&gt;" style="rounded=1;whiteSpace=wrap;html=1;" parent="1" vertex="1">
          <mxGeometry x="610" y="1020" width="280" height="140" as="geometry" />
        </mxCell>
        <mxCell id="H7XO8NyBjXR4PrcWW5bJ-19" value="&lt;font style=&quot;font-size: 36px;&quot;&gt;GPS&lt;/font&gt;" style="rounded=1;whiteSpace=wrap;html=1;" parent="1" vertex="1">
          <mxGeometry x="912.5" y="1030" width="135" height="50" as="geometry" />
        </mxCell>
        <mxCell id="H7XO8NyBjXR4PrcWW5bJ-20" value="&lt;span style=&quot;font-size: 36px;&quot;&gt;Батарея&lt;/span&gt;" style="rounded=1;whiteSpace=wrap;html=1;" parent="1" vertex="1">
          <mxGeometry x="230" y="1370" width="280" height="140" as="geometry" />
        </mxCell>
        <mxCell id="H7XO8NyBjXR4PrcWW5bJ-21" value="&lt;span style=&quot;font-size: 36px;&quot;&gt;FPV камера&lt;/span&gt;" style="rounded=1;whiteSpace=wrap;html=1;" parent="1" vertex="1">
          <mxGeometry x="1070" y="1020" width="280" height="140" as="geometry" />
        </mxCell>
        <mxCell id="H7XO8NyBjXR4PrcWW5bJ-22" value="&lt;font style=&quot;font-size: 36px;&quot;&gt;Радио телекоманды&lt;/font&gt;" style="rounded=1;whiteSpace=wrap;html=1;" parent="1" vertex="1">
          <mxGeometry x="625" y="1710" width="245" height="140" as="geometry" />
        </mxCell>
        <mxCell id="H7XO8NyBjXR4PrcWW5bJ-23" value="&lt;font style=&quot;font-size: 36px;&quot;&gt;Радио телеметрия&lt;/font&gt;&lt;span style=&quot;color: rgba(0, 0, 0, 0); font-family: monospace; font-size: 0px; text-align: start; text-wrap: nowrap;&quot;&gt;%3CmxGraphModel%3E%3Croot%3E%3CmxCell%20id%3D%220%22%2F%3E%3CmxCell%20id%3D%221%22%20parent%3D%220%22%2F%3E%3CmxCell%20id%3D%222%22%20value%3D%22%26lt%3Bfont%20style%3D%26quot%3Bfont-size%3A%2036px%3B%26quot%3B%26gt%3B%D0%94%D0%B0%D1%82%D1%87%D0%B8%D0%BA%20%D0%B2%D0%BE%D0%B7%D0%B4%D1%83%D1%88%D0%BD%D0%BE%D0%B9%20%D1%81%D0%BA%D0%BE%D1%80%D0%BE%D1%81%D1%82%D0%B8%26lt%3B%2Ffont%26gt%3B%22%20style%3D%22rounded%3D1%3BwhiteSpace%3Dwrap%3Bhtml%3D1%3B%22%20vertex%3D%221%22%20parent%3D%221%22%3E%3CmxGeometry%20x%3D%22700%22%20y%3D%221290%22%20width%3D%22280%22%20height%3D%22140%22%20as%3D%22geometry%22%2F%3E%3C%2FmxCell%3E%3C%2Froot%3E%3C%2FmxGraphModel%3E&lt;/span&gt;" style="rounded=1;whiteSpace=wrap;html=1;" parent="1" vertex="1">
          <mxGeometry x="890" y="1710" width="220" height="140" as="geometry" />
        </mxCell>
        <mxCell id="H7XO8NyBjXR4PrcWW5bJ-24" value="&lt;font style=&quot;font-size: 36px;&quot;&gt;Регулятор оборотов&lt;/font&gt;" style="rounded=1;whiteSpace=wrap;html=1;" parent="1" vertex="1">
          <mxGeometry x="1460" y="1290" width="280" height="140" as="geometry" />
        </mxCell>
        <mxCell id="H7XO8NyBjXR4PrcWW5bJ-25" value="&lt;font style=&quot;font-size: 36px;&quot;&gt;Мотор&lt;/font&gt;" style="rounded=1;whiteSpace=wrap;html=1;" parent="1" vertex="1">
          <mxGeometry x="1850" y="1290" width="280" height="140" as="geometry" />
        </mxCell>
        <mxCell id="H7XO8NyBjXR4PrcWW5bJ-26" value="&lt;font style=&quot;font-size: 36px;&quot;&gt;Серво приводы&lt;/font&gt;" style="rounded=1;whiteSpace=wrap;html=1;" parent="1" vertex="1">
          <mxGeometry x="1460" y="1470" width="280" height="140" as="geometry" />
        </mxCell>
        <mxCell id="9Zd-3BRB2teNqZ0359ZZ-13" value="" style="shape=flexArrow;endArrow=classic;html=1;rounded=0;exitX=0.999;exitY=0.323;exitDx=0;exitDy=0;exitPerimeter=0;entryX=0;entryY=0.595;entryDx=0;entryDy=0;entryPerimeter=0;fillColor=#330000;" parent="1" edge="1">
          <mxGeometry width="50" height="50" relative="1" as="geometry">
            <mxPoint x="510" y="1440.85" as="sourcePoint" />
            <mxPoint x="620" y="1439.9999999999998" as="targetPoint" />
          </mxGeometry>
        </mxCell>
        <mxCell id="8ioxiQ2x_VyfGYy2V3Dw-16" value="&lt;font style=&quot;font-size: 36px;&quot;&gt;Радио видеопоток&lt;/font&gt;&lt;span style=&quot;color: rgba(0, 0, 0, 0); font-family: monospace; font-size: 0px; text-align: start; text-wrap: nowrap;&quot;&gt;%3CmxGraphModel%3E%3Croot%3E%3CmxCell%20id%3D%220%22%2F%3E%3CmxCell%20id%3D%221%22%20parent%3D%220%22%2F%3E%3CmxCell%20id%3D%222%22%20value%3D%22%26lt%3Bfont%20style%3D%26quot%3Bfont-size%3A%2036px%3B%26quot%3B%26gt%3B%D0%94%D0%B0%D1%82%D1%87%D0%B8%D0%BA%20%D0%B2%D0%BE%D0%B7%D0%B4%D1%83%D1%88%D0%BD%D0%BE%D0%B9%20%D1%81%D0%BA%D0%BE%D1%80%D0%BE%D1%81%D1%82%D0%B8%26lt%3B%2Ffont%26gt%3B%22%20style%3D%22rounded%3D1%3BwhiteSpace%3Dwrap%3Bhtml%3D1%3B%22%20vertex%3D%221%22%20parent%3D%221%22%3E%3CmxGeometry%20x%3D%22700%22%20y%3D%221290%22%20width%3D%22280%22%20height%3D%22140%22%20as%3D%22geometry%22%2F%3E%3C%2FmxCell%3E%3C%2Froot%3E%3C%2FmxGraphModel%3E&lt;/span&gt;" style="rounded=1;whiteSpace=wrap;html=1;" parent="1" vertex="1">
          <mxGeometry x="1130" y="1710" width="220" height="140" as="geometry" />
        </mxCell>
        <mxCell id="8ioxiQ2x_VyfGYy2V3Dw-21" value="&lt;div&gt;&lt;span style=&quot;font-size: 36px;&quot;&gt;Персональный компьютер&lt;/span&gt;&lt;/div&gt;&lt;div&gt;&lt;span style=&quot;font-size: 36px;&quot;&gt;&lt;br&gt;&lt;/span&gt;&lt;/div&gt;&lt;div&gt;&lt;span style=&quot;font-size: 36px;&quot;&gt;&lt;br&gt;&lt;/span&gt;&lt;/div&gt;" style="rounded=0;whiteSpace=wrap;html=1;" parent="1" vertex="1">
          <mxGeometry x="890" y="1940" width="260" height="240" as="geometry" />
        </mxCell>
        <mxCell id="8ioxiQ2x_VyfGYy2V3Dw-22" value="&lt;font style=&quot;font-size: 36px;&quot;&gt;ПО&lt;/font&gt;" style="rounded=1;whiteSpace=wrap;html=1;" parent="1" vertex="1">
          <mxGeometry x="940" y="2080" width="160" height="70" as="geometry" />
        </mxCell>
        <mxCell id="8ioxiQ2x_VyfGYy2V3Dw-23" value="&lt;div&gt;&lt;span style=&quot;font-size: 36px;&quot;&gt;Шлем оператора&lt;/span&gt;&lt;/div&gt;&lt;div&gt;&lt;span style=&quot;font-size: 36px;&quot;&gt;&lt;br&gt;&lt;/span&gt;&lt;/div&gt;" style="rounded=0;whiteSpace=wrap;html=1;" parent="1" vertex="1">
          <mxGeometry x="1160" y="1940" width="200" height="240" as="geometry" />
        </mxCell>
        <mxCell id="8ioxiQ2x_VyfGYy2V3Dw-24" value="&lt;div&gt;&lt;span style=&quot;font-size: 36px;&quot;&gt;Пульт дистанционного управления&lt;/span&gt;&lt;/div&gt;" style="rounded=0;whiteSpace=wrap;html=1;" parent="1" vertex="1">
          <mxGeometry x="594.5" y="1940" width="281" height="240" as="geometry" />
        </mxCell>
        <mxCell id="8ioxiQ2x_VyfGYy2V3Dw-40" value="&lt;font style=&quot;font-size: 36px;&quot;&gt;Компас&lt;/font&gt;" style="rounded=1;whiteSpace=wrap;html=1;" parent="1" vertex="1">
          <mxGeometry x="912.5" y="1090" width="135" height="60" as="geometry" />
        </mxCell>
        <mxCell id="iVMg1bLLgP18WTc871FT-1" value="&lt;font style=&quot;font-size: 36px;&quot;&gt;Акселерометр&lt;/font&gt;" style="rounded=1;whiteSpace=wrap;html=1;" vertex="1" parent="1">
          <mxGeometry x="1070" y="1480" width="260" height="70" as="geometry" />
        </mxCell>
        <mxCell id="iVMg1bLLgP18WTc871FT-2" value="" style="shape=flexArrow;endArrow=classic;html=1;rounded=0;exitX=0.5;exitY=1;exitDx=0;exitDy=0;fillColor=#330000;" edge="1" parent="1" source="H7XO8NyBjXR4PrcWW5bJ-17">
          <mxGeometry width="50" height="50" relative="1" as="geometry">
            <mxPoint x="692.5" y="1200.85" as="sourcePoint" />
            <mxPoint x="750" y="1248" as="targetPoint" />
          </mxGeometry>
        </mxCell>
        <mxCell id="iVMg1bLLgP18WTc871FT-3" value="" style="shape=flexArrow;endArrow=classic;html=1;rounded=0;exitX=0.5;exitY=1;exitDx=0;exitDy=0;fillColor=#330000;" edge="1" parent="1">
          <mxGeometry width="50" height="50" relative="1" as="geometry">
            <mxPoint x="979.66" y="1162" as="sourcePoint" />
            <mxPoint x="979.66" y="1250" as="targetPoint" />
          </mxGeometry>
        </mxCell>
        <mxCell id="iVMg1bLLgP18WTc871FT-4" value="" style="shape=flexArrow;endArrow=classic;html=1;rounded=0;exitX=0.5;exitY=1;exitDx=0;exitDy=0;fillColor=#330000;" edge="1" parent="1">
          <mxGeometry width="50" height="50" relative="1" as="geometry">
            <mxPoint x="1199.66" y="1162" as="sourcePoint" />
            <mxPoint x="1199.66" y="1250" as="targetPoint" />
          </mxGeometry>
        </mxCell>
        <mxCell id="iVMg1bLLgP18WTc871FT-5" value="" style="shape=flexArrow;endArrow=classic;html=1;rounded=0;exitX=0.5;exitY=1;exitDx=0;exitDy=0;fillColor=#330000;" edge="1" parent="1">
          <mxGeometry width="50" height="50" relative="1" as="geometry">
            <mxPoint x="999.41" y="1622" as="sourcePoint" />
            <mxPoint x="999.41" y="1710" as="targetPoint" />
          </mxGeometry>
        </mxCell>
        <mxCell id="iVMg1bLLgP18WTc871FT-6" value="" style="shape=flexArrow;endArrow=classic;html=1;rounded=0;exitX=0.5;exitY=1;exitDx=0;exitDy=0;fillColor=#330000;" edge="1" parent="1">
          <mxGeometry width="50" height="50" relative="1" as="geometry">
            <mxPoint x="1239.41" y="1622" as="sourcePoint" />
            <mxPoint x="1239.41" y="1710" as="targetPoint" />
          </mxGeometry>
        </mxCell>
        <mxCell id="iVMg1bLLgP18WTc871FT-7" value="" style="shape=flexArrow;endArrow=classic;html=1;rounded=0;fillColor=#330000;entryX=0.16;entryY=0.998;entryDx=0;entryDy=0;entryPerimeter=0;exitX=0.46;exitY=-0.018;exitDx=0;exitDy=0;exitPerimeter=0;" edge="1" parent="1">
          <mxGeometry width="50" height="50" relative="1" as="geometry">
            <mxPoint x="750.1900000000003" y="1708.22" as="sourcePoint" />
            <mxPoint x="749.2900000000002" y="1620.0000000000002" as="targetPoint" />
          </mxGeometry>
        </mxCell>
        <mxCell id="iVMg1bLLgP18WTc871FT-9" value="" style="shape=flexArrow;endArrow=classic;html=1;rounded=0;exitX=0.5;exitY=1;exitDx=0;exitDy=0;fillColor=#330000;" edge="1" parent="1">
          <mxGeometry width="50" height="50" relative="1" as="geometry">
            <mxPoint x="1000" y="1852" as="sourcePoint" />
            <mxPoint x="1000" y="1940" as="targetPoint" />
          </mxGeometry>
        </mxCell>
        <mxCell id="iVMg1bLLgP18WTc871FT-10" value="" style="shape=flexArrow;endArrow=classic;html=1;rounded=0;exitX=0.5;exitY=1;exitDx=0;exitDy=0;fillColor=#330000;" edge="1" parent="1">
          <mxGeometry width="50" height="50" relative="1" as="geometry">
            <mxPoint x="1240" y="1852" as="sourcePoint" />
            <mxPoint x="1240" y="1940" as="targetPoint" />
          </mxGeometry>
        </mxCell>
        <mxCell id="iVMg1bLLgP18WTc871FT-12" value="" style="shape=flexArrow;endArrow=classic;html=1;rounded=0;fillColor=#330000;entryX=0.16;entryY=0.998;entryDx=0;entryDy=0;entryPerimeter=0;exitX=0.46;exitY=-0.018;exitDx=0;exitDy=0;exitPerimeter=0;" edge="1" parent="1">
          <mxGeometry width="50" height="50" relative="1" as="geometry">
            <mxPoint x="747.8100000000003" y="1940" as="sourcePoint" />
            <mxPoint x="746.9100000000002" y="1851.7800000000002" as="targetPoint" />
          </mxGeometry>
        </mxCell>
        <mxCell id="iVMg1bLLgP18WTc871FT-13" value="" style="shape=flexArrow;endArrow=classic;html=1;rounded=0;exitX=0.999;exitY=0.323;exitDx=0;exitDy=0;exitPerimeter=0;entryX=0;entryY=0.595;entryDx=0;entryDy=0;entryPerimeter=0;fillColor=#330000;" edge="1" parent="1">
          <mxGeometry width="50" height="50" relative="1" as="geometry">
            <mxPoint x="1350" y="1360.02" as="sourcePoint" />
            <mxPoint x="1460" y="1359.1699999999998" as="targetPoint" />
          </mxGeometry>
        </mxCell>
        <mxCell id="iVMg1bLLgP18WTc871FT-14" value="" style="shape=flexArrow;endArrow=classic;html=1;rounded=0;exitX=0.999;exitY=0.323;exitDx=0;exitDy=0;exitPerimeter=0;entryX=0;entryY=0.595;entryDx=0;entryDy=0;entryPerimeter=0;fillColor=#330000;" edge="1" parent="1">
          <mxGeometry width="50" height="50" relative="1" as="geometry">
            <mxPoint x="1740" y="1360.02" as="sourcePoint" />
            <mxPoint x="1850" y="1359.1699999999998" as="targetPoint" />
          </mxGeometry>
        </mxCell>
        <mxCell id="iVMg1bLLgP18WTc871FT-15" value="" style="shape=flexArrow;endArrow=classic;html=1;rounded=0;exitX=0.999;exitY=0.323;exitDx=0;exitDy=0;exitPerimeter=0;entryX=0;entryY=0.595;entryDx=0;entryDy=0;entryPerimeter=0;fillColor=#330000;" edge="1" parent="1">
          <mxGeometry width="50" height="50" relative="1" as="geometry">
            <mxPoint x="1350" y="1540.02" as="sourcePoint" />
            <mxPoint x="1460" y="1539.1699999999998" as="targetPoint" />
          </mxGeometry>
        </mxCell>
      </root>
    </mxGraphModel>
  </diagram>
</mxfile>
